<svg viewBox="0 0 1600 1060" xmlns="http://www.w3.org/2000/svg" font-family="'Segoe UI', Helvetica, Arial, sans-serif">
  <defs>
    <linearGradient id="pageBg" x1="0" y1="0" x2="1" y2="1">
      <stop offset="0%" stop-color="#0b0f2b"/>
      <stop offset="45%" stop-color="#0e1435"/>
      <stop offset="100%" stop-color="#160b2e"/>
    </linearGradient>
    <radialGradient id="glowCyan" cx="50%" cy="50%" r="50%">
      <stop offset="0%" stop-color="#00e5ff" stop-opacity="0.16"/>
      <stop offset="100%" stop-color="#00e5ff" stop-opacity="0"/>
    </radialGradient>
    <radialGradient id="glowPurple" cx="50%" cy="50%" r="50%">
      <stop offset="0%" stop-color="#a855f7" stop-opacity="0.16"/>
      <stop offset="100%" stop-color="#a855f7" stop-opacity="0"/>
    </radialGradient>
    <linearGradient id="titleGrad" x1="0" y1="0" x2="1" y2="0">
      <stop offset="0%" stop-color="#ffffff"/>
      <stop offset="100%" stop-color="#7fdcff"/>
    </linearGradient>
    <linearGradient id="skyGrad" x1="0" y1="0" x2="0" y2="1">
      <stop offset="0%" stop-color="#f7b267"/>
      <stop offset="45%" stop-color="#8e7bd6"/>
      <stop offset="100%" stop-color="#2c3a6b"/>
    </linearGradient>
    <linearGradient id="lakeGrad" x1="0" y1="0" x2="0" y2="1">
      <stop offset="0%" stop-color="#3c4f8a"/>
      <stop offset="100%" stop-color="#1b2447"/>
    </linearGradient>
    <pattern id="dots" width="26" height="26" patternUnits="userSpaceOnUse">
      <circle cx="2" cy="2" r="1" fill="#26305a" opacity="0.4"/>
    </pattern>
    <filter id="soft" x="-60%" y="-60%" width="220%" height="220%">
      <feGaussianBlur stdDeviation="3" result="b"/>
      <feMerge><feMergeNode in="b"/><feMergeNode in="SourceGraphic"/></feMerge>
    </filter>
    <pattern id="noise" width="8" height="8" patternUnits="userSpaceOnUse">
      <rect width="8" height="8" fill="#120826"/>
      <rect x="0" y="0" width="4" height="4" fill="#ff5fbf" opacity="0.7"/>
      <rect x="4" y="4" width="4" height="4" fill="#00e5ff" opacity="0.7"/>
      <rect x="4" y="0" width="4" height="4" fill="#3ddc84" opacity="0.6"/>
      <rect x="0" y="4" width="4" height="4" fill="#c084fc" opacity="0.6"/>
    </pattern>
    <marker id="arrow" markerWidth="8" markerHeight="8" refX="4" refY="4" orient="auto">
      <path d="M0 0 L8 4 L0 8 Z" fill="#4b5568"/>
    </marker>
  </defs>

  <!-- page background -->
  <rect x="0" y="0" width="1600" height="1060" rx="26" fill="url(#pageBg)"/>
  <rect x="0" y="0" width="1600" height="1060" rx="26" fill="url(#dots)"/>
  <circle cx="120" cy="950" r="260" fill="url(#glowCyan)"/>
  <circle cx="1480" cy="120" r="260" fill="url(#glowPurple)"/>
  <rect x="0" y="0" width="1600" height="1060" rx="26" fill="none" stroke="#2a3560" stroke-width="1.5"/>

  <!-- ===================== HEADER ===================== -->
  <g transform="translate(40,30)">
    <rect x="0" y="0" width="70" height="70" rx="18" fill="#0d1330" stroke="#00d4ff" stroke-width="1.5"/>
    <path d="M35 12 C46 16 52 28 50 40 L44 46 L38 40 C34 44 28 47 22 48 C23 42 26 36 30 32 L24 26 C30 24 33 18 35 12 Z" fill="#eaf2ff"/>
    <circle cx="38" cy="30" r="4" fill="#00d4ff"/>
    <path d="M20 48 L14 58 M28 48 L28 58" stroke="#ff9f4d" stroke-width="3" stroke-linecap="round"/>
    <text x="90" y="34" font-size="34" font-weight="800" letter-spacing="1" fill="#eaf2ff">FEATURED <tspan fill="#00d4ff">PROJECT</tspan></text>
    <rect x="92" y="50" width="70" height="4" rx="2" fill="#00d4ff"/>
  </g>

  <g transform="translate(1160,46)" font-size="15" font-weight="700" fill="#7fdcff">
    <rect x="0" y="0" width="400" height="42" rx="21" fill="#0d1330" stroke="#233057" stroke-width="1.3"/>
    <path d="M18 16 h10 v-4 a5 5 0 0 1 10 0 v4 h10 v14 h-30 z" fill="none" stroke="#00d4ff" stroke-width="2"/>
    <text x="55" y="26">ENCRYPT</text>
    <circle cx="150" cy="21" r="2.5" fill="#00d4ff"/>
    <text x="165" y="26">PROTECT</text>
    <circle cx="262" cy="21" r="2.5" fill="#00d4ff"/>
    <text x="278" y="26">RESTORE</text>
  </g>

  <!-- ===================== MAIN CARD ===================== -->
  <g transform="translate(40,130)">
    <rect x="0" y="0" width="1520" height="880" rx="22" fill="#0a0f28" fill-opacity="0.55" stroke="#2a3560" stroke-width="1.3"/>

    <!-- divider lines between columns -->
    <line x1="470" y1="30" x2="470" y2="800" stroke="#233057" stroke-width="1.3"/>
    <line x1="1090" y1="30" x2="1090" y2="800" stroke="#233057" stroke-width="1.3"/>
    <line x1="30" y1="820" x2="1490" y2="820" stroke="#233057" stroke-width="1.3"/>

    <!-- ============ LEFT COLUMN ============ -->
    <g transform="translate(40,36)">
      <rect x="0" y="0" width="64" height="64" rx="16" fill="#1a0f34" stroke="#c084fc" stroke-width="1.5"/>
      <rect x="18" y="26" width="28" height="22" rx="4" fill="none" stroke="#c084fc" stroke-width="2.5"/>
      <path d="M22 26 v-6 a10 8 0 0 1 20 0 v6" fill="none" stroke="#c084fc" stroke-width="2.5"/>
      <circle cx="32" cy="37" r="3" fill="#c084fc"/>

      <text x="78" y="26" font-size="23" font-weight="800" fill="#eaf2ff">Advanced Image Encryption</text>
      <text x="78" y="50" font-size="15" fill="#3ddc84">Secure. Scrambled. Restorable.</text>

      <!-- tag pills -->
      <g transform="translate(0,78)" font-size="13" font-weight="700">
        <rect x="0" y="0" width="88" height="32" rx="16" fill="#0d1a33" stroke="#4b9fe1" stroke-width="1.2"/>
        <text x="44" y="21" text-anchor="middle" fill="#4b9fe1">Python</text>
        <rect x="98" y="0" width="98" height="32" rx="16" fill="#0d1a33" stroke="#3ddc84" stroke-width="1.2"/>
        <text x="147" y="21" text-anchor="middle" fill="#3ddc84">OpenCV</text>
        <rect x="206" y="0" width="98" height="32" rx="16" fill="#0d1a33" stroke="#f4c04d" stroke-width="1.2"/>
        <text x="255" y="21" text-anchor="middle" fill="#f4c04d">NumPy</text>
      </g>

      <!-- Project overview -->
      <g transform="translate(0,150)">
        <rect x="0" y="0" width="18" height="18" rx="3" fill="none" stroke="#00d4ff" stroke-width="2"/>
        <line x1="4" y1="6" x2="14" y2="6" stroke="#00d4ff" stroke-width="1.5"/>
        <line x1="4" y1="10" x2="14" y2="10" stroke="#00d4ff" stroke-width="1.5"/>
        <line x1="4" y1="14" x2="10" y2="14" stroke="#00d4ff" stroke-width="1.5"/>
        <text x="28" y="15" font-size="15" font-weight="800" letter-spacing="1" fill="#00d4ff">PROJECT OVERVIEW</text>
        <g font-size="14.5" fill="#c3c9dd">
          <text x="0" y="48">A hybrid image encryption system that combines seeded</text>
          <text x="0" y="70">pixel permutation with matrix-based transformations to</text>
          <text x="0" y="92">deliver highly secure, lossless, and key-dependent</text>
          <text x="0" y="114">encryption.</text>
        </g>
      </g>

      <!-- Abstract summary -->
      <g transform="translate(0,300)">
        <rect x="0" y="0" width="430" height="430" rx="14" fill="#170c30" fill-opacity="0.6" stroke="#a855f7" stroke-width="1.2"/>
        <g transform="translate(16,16)">
          <rect x="0" y="0" width="16" height="16" rx="3" fill="none" stroke="#c084fc" stroke-width="2"/>
          <line x1="3" y1="5" x2="13" y2="5" stroke="#c084fc" stroke-width="1.3"/>
          <line x1="3" y1="8" x2="13" y2="8" stroke="#c084fc" stroke-width="1.3"/>
          <line x1="3" y1="11" x2="9" y2="11" stroke="#c084fc" stroke-width="1.3"/>
          <text x="26" y="14" font-size="14" font-weight="800" letter-spacing="1" fill="#c084fc">ABSTRACT SUMMARY</text>
        </g>
        <g font-size="13.3" fill="#c3c9dd" transform="translate(16,52)">
          <text x="0" y="0">The encryption process starts by converting the</text>
          <text x="0" y="22">image into a pixel matrix. Each pixel's position and</text>
          <text x="0" y="44">color intensity are recorded numerically. A key-</text>
          <text x="0" y="66">based random generator then shuffles all pixel</text>
          <text x="0" y="88">positions, breaking the natural arrangement so the</text>
          <text x="0" y="110">image becomes unrecognizable — the first secure</text>
          <text x="0" y="132">layer of encryption. Only the correct key can</text>
          <text x="0" y="154">reproduce the same shuffle order for decryption.</text>
          <text x="0" y="176">After shuffling, matrix-based operations — multipli-</text>
          <text x="0" y="198">cation and modular transforms using key-derived</text>
          <text x="0" y="220">matrices — add diffusion, spreading small changes</text>
          <text x="0" y="242">widely. Even minor key variations produce entirely</text>
          <text x="0" y="264">different encrypted images. During decryption, the</text>
          <text x="0" y="286">matrix operations are reversed first, then pixels are</text>
          <text x="0" y="308">restored to their original order using the same key —</text>
          <text x="0" y="330">yielding the exact original image with zero loss.</text>
        </g>
      </g>
    </g>

    <!-- ============ MIDDLE COLUMN ============ -->
    <g transform="translate(500,36)">
      <rect x="0" y="0" width="18" height="18" rx="4" fill="none" stroke="#00d4ff" stroke-width="2"/>
      <path d="M4 9 h10 M9 4 v10" stroke="#00d4ff" stroke-width="1.5"/>
      <text x="28" y="15" font-size="15" font-weight="800" letter-spacing="1" fill="#00d4ff">ENCRYPTION WORKFLOW</text>
      <line x1="0" y1="30" x2="570" y2="30" stroke="#233057" stroke-width="1"/>

      <!-- 5 workflow steps -->
      <g transform="translate(0,50)" text-anchor="middle" font-size="12.5" font-weight="700">
        <!-- step 1 -->
        <g transform="translate(0,0)">
          <rect x="0" y="0" width="90" height="90" rx="14" fill="#0a1f2e" stroke="#00d4ff" stroke-width="1.5"/>
          <rect x="26" y="26" width="38" height="30" rx="3" fill="none" stroke="#00d4ff" stroke-width="2"/>
          <circle cx="35" cy="36" r="3" fill="#00d4ff"/>
          <path d="M28 50 L38 40 L46 48 L58 34" fill="none" stroke="#00d4ff" stroke-width="2"/>
          <text x="45" y="112" fill="#eaf2ff">INPUT</text>
          <text x="45" y="128" fill="#eaf2ff">IMAGE</text>
        </g>
        <path d="M100 45 h30" stroke="#4b5568" stroke-width="2" marker-end="url(#arrow)"/>
        <!-- step 2 -->
        <g transform="translate(140,0)">
          <rect x="0" y="0" width="90" height="90" rx="14" fill="#0a1730" stroke="#4b9fe1" stroke-width="1.5"/>
          <g fill="#4b9fe1">
            <rect x="24" y="24" width="10" height="10"/><rect x="40" y="24" width="10" height="10"/><rect x="56" y="24" width="10" height="10"/>
            <rect x="24" y="40" width="10" height="10"/><rect x="40" y="40" width="10" height="10"/><rect x="56" y="40" width="10" height="10"/>
            <rect x="24" y="56" width="10" height="10"/><rect x="40" y="56" width="10" height="10"/><rect x="56" y="56" width="10" height="10"/>
          </g>
          <text x="45" y="112" fill="#eaf2ff">PIXEL</text>
          <text x="45" y="128" fill="#eaf2ff">MATRIX</text>
        </g>
        <path d="M240 45 h30" stroke="#4b5568" stroke-width="2" marker-end="url(#arrow)"/>
        <!-- step 3 -->
        <g transform="translate(280,0)">
          <rect x="0" y="0" width="90" height="90" rx="14" fill="#180a30" stroke="#c084fc" stroke-width="1.5"/>
          <rect x="26" y="26" width="38" height="38" rx="6" fill="none" stroke="#c084fc" stroke-width="2"/>
          <circle cx="36" cy="36" r="3" fill="#c084fc"/><circle cx="54" cy="36" r="3" fill="#c084fc"/>
          <circle cx="36" cy="54" r="3" fill="#c084fc"/><circle cx="54" cy="54" r="3" fill="#c084fc"/>
          <circle cx="45" cy="45" r="3" fill="#c084fc"/>
          <text x="45" y="112" fill="#eaf2ff">KEY-BASED</text>
          <text x="45" y="128" fill="#eaf2ff">SHUFFLING</text>
        </g>
        <path d="M380 45 h30" stroke="#4b5568" stroke-width="2" marker-end="url(#arrow)"/>
        <!-- step 4 -->
        <g transform="translate(420,0)">
          <rect x="0" y="0" width="90" height="90" rx="14" fill="#061a2e" stroke="#4b9fe1" stroke-width="1.5"/>
          <text x="35" y="42" font-size="16" fill="#4b9fe1" font-weight="800">1</text>
          <text x="55" y="42" font-size="16" fill="#4b9fe1" font-weight="800">2</text>
          <text x="35" y="62" font-size="16" fill="#4b9fe1" font-weight="800">3</text>
          <text x="55" y="62" font-size="16" fill="#4b9fe1" font-weight="800">4</text>
          <line x1="45" y1="24" x2="45" y2="68" stroke="#4b9fe1" stroke-width="1"/>
          <line x1="24" y1="52" x2="66" y2="52" stroke="#4b9fe1" stroke-width="1"/>
          <text x="45" y="112" fill="#eaf2ff">MATRIX</text>
          <text x="45" y="128" fill="#eaf2ff">TRANSFORM</text>
        </g>
        <path d="M520 45 h30" stroke="#4b5568" stroke-width="2" marker-end="url(#arrow)"/>
        <!-- step 5 -->
        <g transform="translate(560,0)">
          <rect x="0" y="0" width="90" height="90" rx="14" fill="url(#noise)" stroke="#ff5fbf" stroke-width="1.5"/>
          <text x="45" y="112" fill="#eaf2ff">ENCRYPTED</text>
          <text x="45" y="128" fill="#eaf2ff">IMAGE</text>
        </g>
      </g>

      <!-- same key bar -->
      <g transform="translate(20,190)" font-size="14" font-weight="700">
        <rect x="0" y="0" width="610" height="52" rx="26" fill="#07231a" stroke="#3ddc84" stroke-width="1.3"/>
        <rect x="16" y="16" width="20" height="20" rx="4" fill="none" stroke="#3ddc84" stroke-width="2"/>
        <path d="M20 16 v-5 a6 5 0 0 1 12 0 v5" fill="none" stroke="#3ddc84" stroke-width="2"/>
        <text x="48" y="32" fill="#3ddc84">SAME KEY</text>
        <text x="150" y="32" fill="#8b93a7">→</text>
        <text x="175" y="32" fill="#eaf2ff">DECRYPTION</text>
        <text x="300" y="32" fill="#8b93a7">→</text>
        <text x="325" y="32" fill="#eaf2ff">ORIGINAL IMAGE</text>
        <rect x="558" y="16" width="20" height="20" rx="4" fill="none" stroke="#3ddc84" stroke-width="2"/>
        <path d="M562 16 v-5 a6 5 0 0 1 12 0 v5" fill="none" stroke="#3ddc84" stroke-width="2"/>
      </g>

      <!-- Visual demonstration -->
      <g transform="translate(0,280)">
        <rect x="0" y="0" width="18" height="18" rx="9" fill="none" stroke="#00d4ff" stroke-width="2"/>
        <circle cx="9" cy="9" r="2" fill="#00d4ff"/>
        <text x="28" y="15" font-size="15" font-weight="800" letter-spacing="1" fill="#00d4ff">VISUAL DEMONSTRATION</text>
        <line x1="0" y1="30" x2="570" y2="30" stroke="#233057" stroke-width="1"/>

        <!-- three image panels -->
        <g transform="translate(0,50)" font-size="12" font-weight="700" text-anchor="middle" fill="#eaf2ff">
          <!-- original -->
          <text x="90" y="0">ORIGINAL IMAGE</text>
          <g transform="translate(20,14)">
            <rect x="0" y="0" width="140" height="150" rx="8" fill="url(#skyGrad)"/>
            <rect x="0" y="90" width="140" height="60" fill="url(#lakeGrad)"/>
            <polygon points="10,95 40,50 65,95" fill="#e8ecf5" opacity="0.9"/>
            <polygon points="45,95 75,40 105,95" fill="#c9d3ea" opacity="0.9"/>
            <polygon points="80,95 110,55 135,95" fill="#e8ecf5" opacity="0.85"/>
            <circle cx="115" cy="20" r="12" fill="#ffd9a0" opacity="0.9"/>
          </g>
          <path d="M170 90 h26" stroke="#4b5568" stroke-width="2" marker-end="url(#arrow)" transform="translate(0,14)"/>
          <rect x="176" y="86" width="16" height="16" rx="3" fill="none" stroke="#00d4ff" stroke-width="1.5" transform="translate(0,14)"/>

          <!-- encrypted -->
          <text x="325" y="0">ENCRYPTED IMAGE</text>
          <g transform="translate(255,14)">
            <rect x="0" y="0" width="140" height="150" rx="8" fill="url(#noise)" stroke="#ff5fbf" stroke-width="1.3"/>
          </g>
          <path d="M405 90 h26" stroke="#4b5568" stroke-width="2" marker-end="url(#arrow)" transform="translate(0,14)"/>
          <rect x="411" y="86" width="16" height="16" rx="3" fill="none" stroke="#00d4ff" stroke-width="1.5" transform="translate(0,14)"/>

          <!-- decrypted -->
          <text x="560" y="0">DECRYPTED IMAGE</text>
          <g transform="translate(490,14)">
            <rect x="0" y="0" width="140" height="150" rx="8" fill="url(#skyGrad)"/>
            <rect x="0" y="90" width="140" height="60" fill="url(#lakeGrad)"/>
            <polygon points="10,95 40,50 65,95" fill="#e8ecf5" opacity="0.9"/>
            <polygon points="45,95 75,40 105,95" fill="#c9d3ea" opacity="0.9"/>
            <polygon points="80,95 110,55 135,95" fill="#e8ecf5" opacity="0.85"/>
            <circle cx="115" cy="20" r="12" fill="#ffd9a0" opacity="0.9"/>
          </g>
        </g>

        <text x="285" y="240" text-anchor="middle" font-size="13" fill="#8b93a7">Encrypted with Secret Key</text>

        <g transform="translate(155,254)" font-family="Consolas, monospace">
          <rect x="0" y="0" width="260" height="42" rx="21" fill="#0a1730" stroke="#4b9fe1" stroke-width="1.3"/>
          <circle cx="26" cy="21" r="9" fill="none" stroke="#4b9fe1" stroke-width="2"/>
          <rect x="21" y="26" width="10" height="8" fill="none" stroke="#4b9fe1" stroke-width="1.5"/>
          <text x="45" y="27" font-size="15" fill="#7fdcff">3fA7!kL9@pQ2#xZ8</text>
        </g>
      </g>
    </g>

    <!-- ============ RIGHT COLUMN ============ -->
    <g transform="translate(1120,36)">
      <path d="M9 0 L11 6 L17 6 L12 10 L14 17 L9 13 L4 17 L6 10 L1 6 L7 6 Z" fill="#f4c04d"/>
      <text x="26" y="15" font-size="15" font-weight="800" letter-spacing="1" fill="#f4c04d">KEY FEATURES</text>
      <line x1="0" y1="30" x2="360" y2="30" stroke="#233057" stroke-width="1"/>

      <g font-size="14.5">
        <!-- feature 1 -->
        <g transform="translate(0,52)">
          <circle cx="22" cy="18" r="22" fill="#062a20" stroke="#3ddc84" stroke-width="1.3"/>
          <path d="M14 12 a10 10 0 1 1 0 12" fill="none" stroke="#3ddc84" stroke-width="2"/>
          <path d="M14 10 v6 h6 M14 28 v-6 h6" stroke="#3ddc84" stroke-width="2" fill="none"/>
          <text x="56" y="10" font-weight="800" fill="#3ddc84">Seeded Pixel Permutation</text>
          <text x="56" y="30" font-size="13" fill="#a9b1c6">Key-driven shuffling of pixel positions</text>
          <text x="56" y="48" font-size="13" fill="#a9b1c6">ensures strong confusion.</text>
        </g>
        <!-- feature 2 -->
        <g transform="translate(0,142)">
          <circle cx="22" cy="18" r="22" fill="#08172e" stroke="#4b9fe1" stroke-width="1.3"/>
          <g fill="#4b9fe1"><rect x="12" y="10" width="7" height="7"/><rect x="22" y="10" width="7" height="7"/><rect x="12" y="20" width="7" height="7"/><rect x="22" y="20" width="7" height="7"/></g>
          <text x="56" y="10" font-weight="800" fill="#4b9fe1">Matrix Based Transformation</text>
          <text x="56" y="30" font-size="13" fill="#a9b1c6">Multiplication &amp; modular operations</text>
          <text x="56" y="48" font-size="13" fill="#a9b1c6">provide high diffusion.</text>
        </g>
        <!-- feature 3 -->
        <g transform="translate(0,232)">
          <circle cx="22" cy="18" r="22" fill="#170a2e" stroke="#c084fc" stroke-width="1.3"/>
          <circle cx="17" cy="18" r="6" fill="none" stroke="#c084fc" stroke-width="2"/>
          <line x1="23" y1="18" x2="34" y2="18" stroke="#c084fc" stroke-width="2"/>
          <line x1="29" y1="18" x2="29" y2="24" stroke="#c084fc" stroke-width="2"/>
          <text x="56" y="10" font-weight="800" fill="#c084fc">Key Sensitive</text>
          <text x="56" y="30" font-size="13" fill="#a9b1c6">Even a slight change in key produces</text>
          <text x="56" y="48" font-size="13" fill="#a9b1c6">a completely different output.</text>
        </g>
        <!-- feature 4 -->
        <g transform="translate(0,322)">
          <circle cx="22" cy="18" r="22" fill="#061a2e" stroke="#00d4ff" stroke-width="1.3"/>
          <path d="M12 18 a10 10 0 1 1 3 7" fill="none" stroke="#00d4ff" stroke-width="2"/>
          <path d="M12 12 l0 6 6 0" fill="none" stroke="#00d4ff" stroke-width="2"/>
          <text x="56" y="10" font-weight="800" fill="#00d4ff">Lossless &amp; Reversible</text>
          <text x="56" y="30" font-size="13" fill="#a9b1c6">Exact original image is recovered</text>
          <text x="56" y="48" font-size="13" fill="#a9b1c6">using the same key.</text>
        </g>
      </g>

      <!-- Outcomes -->
      <g transform="translate(0,440)">
        <path d="M2 0 h14 v6 a7 7 0 0 1 -14 0 z" fill="none" stroke="#00d4ff" stroke-width="1.8"/>
        <line x1="9" y1="13" x2="9" y2="18" stroke="#00d4ff" stroke-width="1.8"/>
        <line x1="4" y1="18" x2="14" y2="18" stroke="#00d4ff" stroke-width="1.8"/>
        <text x="26" y="14" font-size="15" font-weight="800" letter-spacing="1" fill="#00d4ff">OUTCOMES</text>
        <line x1="0" y1="30" x2="360" y2="30" stroke="#233057" stroke-width="1"/>

        <g font-size="13.5" fill="#c3c9dd">
          <g transform="translate(0,52)">
            <circle cx="9" cy="7" r="9" fill="none" stroke="#3ddc84" stroke-width="1.5"/>
            <path d="M5 7 l3 3 6 -6" fill="none" stroke="#3ddc84" stroke-width="2"/>
            <text x="26" y="6">High security with dual-layer encryption</text>
            <text x="26" y="24">(scrambling + matrix transformation).</text>
          </g>
          <g transform="translate(0,98)">
            <circle cx="9" cy="7" r="9" fill="none" stroke="#3ddc84" stroke-width="1.5"/>
            <path d="M5 7 l3 3 6 -6" fill="none" stroke="#3ddc84" stroke-width="2"/>
            <text x="26" y="6">Resistant to statistical attacks and</text>
            <text x="26" y="24">differential analysis.</text>
          </g>
          <g transform="translate(0,144)">
            <circle cx="9" cy="7" r="9" fill="none" stroke="#3ddc84" stroke-width="1.5"/>
            <path d="M5 7 l3 3 6 -6" fill="none" stroke="#3ddc84" stroke-width="2"/>
            <text x="26" y="6">Suitable for secure image transmission</text>
            <text x="26" y="24">and storage.</text>
          </g>
          <g transform="translate(0,190)">
            <circle cx="9" cy="7" r="9" fill="none" stroke="#3ddc84" stroke-width="1.5"/>
            <path d="M5 7 l3 3 6 -6" fill="none" stroke="#3ddc84" stroke-width="2"/>
            <text x="26" y="6">Efficient and implemented with</text>
            <text x="26" y="24">Python, OpenCV &amp; NumPy.</text>
          </g>
        </g>
      </g>
    </g>

    <!-- ============ BOTTOM TECH BAR ============ -->
    <g transform="translate(60,850)" font-size="14.5" font-weight="700">
      <g transform="translate(0,0)">
        <rect x="0" y="0" width="34" height="34" rx="8" fill="#0d1a33" stroke="#4b9fe1" stroke-width="1.3"/>
        <text x="17" y="23" text-anchor="middle" font-size="16" fill="#4b9fe1">🐍</text>
        <text x="46" y="23" fill="#eaf2ff">Python</text>
      </g>
      <g transform="translate(190,0)">
        <rect x="0" y="0" width="34" height="34" rx="8" fill="#062a20" stroke="#3ddc84" stroke-width="1.3"/>
        <circle cx="17" cy="17" r="8" fill="none" stroke="#3ddc84" stroke-width="2"/>
        <text x="46" y="23" fill="#eaf2ff">OpenCV</text>
      </g>
      <g transform="translate(380,0)">
        <rect x="0" y="0" width="34" height="34" rx="8" fill="#241c05" stroke="#f4c04d" stroke-width="1.3"/>
        <polygon points="17,7 27,13 27,23 17,29 7,23 7,13" fill="none" stroke="#f4c04d" stroke-width="2"/>
        <text x="46" y="23" fill="#eaf2ff">NumPy</text>
      </g>
      <g transform="translate(570,0)">
        <rect x="0" y="0" width="34" height="34" rx="8" fill="#170c30" stroke="#c084fc" stroke-width="1.3"/>
        <rect x="10" y="10" width="14" height="14" rx="3" fill="none" stroke="#c084fc" stroke-width="2"/>
        <path d="M13 10 v-3 a4 3 0 0 1 8 0 v3" stroke="#c084fc" stroke-width="1.6" fill="none"/>
        <text x="46" y="23" fill="#eaf2ff">AES-like Matrix Ops</text>
      </g>
      <g transform="translate(830,0)">
        <rect x="0" y="0" width="34" height="34" rx="8" fill="#061a2e" stroke="#00d4ff" stroke-width="1.3"/>
        <circle cx="14" cy="20" r="6" fill="none" stroke="#00d4ff" stroke-width="2"/>
        <path d="M18 16 L27 7 M23 12 l4 4 M27 8 l4 4" stroke="#00d4ff" stroke-width="2" fill="none"/>
        <text x="46" y="23" fill="#eaf2ff">Random Key Generator</text>
      </g>

      <!-- decorative circuit lines -->
      <g stroke="#2a3560" stroke-width="1.3" fill="none" opacity="0.7">
        <path d="M1090 17 h60 l14 -14 h60"/>
        <circle cx="1090" cy="17" r="3" fill="#233057"/>
        <circle cx="1224" cy="3" r="3" fill="#233057"/>
      </g>
    </g>
  </g>

</svg>
